<?xml version="1.0" encoding="utf-8"?>
<!-- Generator: Adobe Illustrator 19.1.0, SVG Export Plug-In . SVG Version: 6.00 Build 0)  -->
<svg version="1.1" id="Layer_1" xmlns="http://www.w3.org/2000/svg" xmlns:xlink="http://www.w3.org/1999/xlink" x="0px" y="0px"
	 viewBox="0 0 514 544" style="enable-background:new 0 0 514 544;" xml:space="preserve">
<style type="text/css">
	.st0{fill:#EBEBEB;}
	.st1{fill:none;stroke:#CCCCCC;stroke-width:2;}
	.st2{fill:none;stroke:#000000;stroke-width:3.9349;stroke-miterlimit:10;}
	.st3{fill:#801450;}
	.st4{fill:none;stroke:#CCCCCC;stroke-width:1.9696;}
	.st5{fill:none;stroke:#000000;stroke-width:3.9391;stroke-miterlimit:10;}
	.st6{fill:#C10000;}
	.st7{fill:#EE771A;}
	.st8{fill:#E2E2E2;}
	.st9{fill:#54594D;}
	.st10{fill:#44493D;}
	.st11{fill:none;stroke:#D5D5D5;stroke-width:2.5586;stroke-miterlimit:10;}
	.st12{fill:#EFE8BD;}
	.st13{fill:#F9EEC2;}
	.st14{fill:#D9CEA2;}
	.st15{fill:#E9DEB2;}
	.st16{fill:#AEC6CE;}
	.st17{fill:#B2B2B1;}
	.st18{fill:#CEB08A;}
	.st19{fill:#E5E5E5;}
	.st20{fill:#BEA07A;}
	.st21{fill:none;stroke:#BEA07A;stroke-width:1.5102;stroke-miterlimit:10;}
	.st22{fill:#AF9374;}
	.st23{fill:none;stroke:#BEA07A;stroke-width:3.0243;stroke-miterlimit:10;}
	.st24{fill:#F1DCCB;}
	.st25{fill:#F5C499;}
	.st26{fill:#CB7F5D;}
	.st27{fill:#E3A580;}
	.st28{fill:#D39570;}
	.st29{fill:#DB9268;}
	.st30{fill:#FCB482;}
	.st31{fill:#D78458;}
	.st32{fill:#D9C8B6;}
	.st33{fill:#D1BCAB;}
	.st34{fill:#CB8258;}
	.st35{fill:#ECA472;}
	.st36{fill:#C77448;}
	.st37{fill:#BB6F4D;}
	.st38{fill:#E5B489;}
	.st39{fill:#F4EAE2;}
	.st40{fill:#AF7D52;}
</style>
<line class="st4" x1="88.1" y1="515.5" x2="88.1" y2="546.2"/>
<line class="st4" x1="189.2" y1="515.5" x2="189.2" y2="530.9"/>
<line class="st4" x1="390.4" y1="515.5" x2="390.4" y2="530.9"/>
<line class="st4" x1="288.9" y1="515.5" x2="288.9" y2="546.2"/>
<line class="st4" x1="490.1" y1="515.5" x2="490.1" y2="546.2"/>
<g>
	<polygon class="st0" points="511.9,514.1 9.5,514.1 9.5,503.2 18,466.6 26.5,476.2 35.1,482.6 43.6,477.8 52.1,465.7 60.6,470.6 
		69.1,465.9 77.6,448 86.1,434.1 94.7,428.9 103.2,361.8 111.7,359.7 120.2,368.6 128.7,402 137.2,321.4 145.7,177.5 154.3,4.6 
		162.8,68.3 171.3,138.8 179.8,203.6 188.3,174.1 196.8,197 205.3,230.5 213.9,229.1 222.4,269.8 230.9,307.5 239.4,329.9 
		247.9,327.9 256.4,237.5 264.9,368 273.5,341.5 282,363.4 290.5,275.1 299,307.2 307.5,283 316,366.1 324.5,352.4 333.1,354.7 
		341.6,363.4 350.1,396.2 358.6,361.7 367.1,373.5 375.6,411.5 384.1,413.9 392.7,408.6 401.2,437.1 409.7,432.2 418.2,369.8 
		426.7,399 435.2,391.3 443.8,387.5 452.3,416.9 460.8,405.7 469.3,461.3 477.8,408.6 486.3,409.7 494.8,389.7 503.4,403.1 
		511.9,433.6 	"/>
</g>
<g>
	<g>
		<line class="st4" x1="4.2" y1="514.5" x2="517.2" y2="514.5"/>
		<line class="st4" x1="4.2" y1="411.7" x2="517.2" y2="411.7"/>
		<line class="st4" x1="4.2" y1="207.2" x2="517.2" y2="207.2"/>
		<line class="st4" x1="4.2" y1="2.2" x2="517.2" y2="2.2"/>
	</g>
</g>
<line class="st5" x1="3.2" y1="515.5" x2="517" y2="515.5"/>
<g>
	<g>
		<polygon class="st7" points="511.9,512.6 16.2,512.6 16.2,512.6 24.3,512.6 32.4,512.6 40.5,512.6 48.7,512.6 56.8,512.6 
			64.9,512.6 73,512.6 81.2,512.6 89.3,512.6 97.4,512.6 105.6,512.6 113.7,511.4 121.8,512.5 129.9,512.4 138.1,512.3 146.2,512.2 
			154.3,511 162.4,499.5 170.6,474.8 178.7,455.4 186.8,443.9 194.9,446.1 203.1,455.8 211.2,444.1 219.3,471 227.4,477.9 
			235.6,487.8 243.7,496 251.8,501.2 259.9,488.9 268.1,478.6 276.2,493.6 284.3,487.5 292.5,487.5 300.6,420.7 308.7,447.3 
			316.8,405.9 325,463.2 333.1,445.5 341.2,457.8 349.3,444.4 357.5,459.1 365.6,441.5 373.7,430.2 381.8,461.3 390,470.9 
			398.1,460 406.2,477.3 414.3,473.6 422.5,477.2 430.6,446.9 438.7,433.7 446.9,452.6 455,457.1 463.1,462.4 471.2,491.6 
			479.4,449.2 487.5,456.5 495.6,427.2 503.7,435.5 511.9,460.7 		"/>
	</g>
</g>
</svg>
