<?xml version="1.0" encoding="utf-8"?>
<!-- Generator: Adobe Illustrator 19.1.0, SVG Export Plug-In . SVG Version: 6.00 Build 0)  -->
<svg version="1.1" id="Layer_1" xmlns="http://www.w3.org/2000/svg" xmlns:xlink="http://www.w3.org/1999/xlink" x="0px" y="0px"
	 viewBox="0 0 514 544" style="enable-background:new 0 0 514 544;" xml:space="preserve">
<style type="text/css">
	.st0{fill:#E2E2E2;}
	.st1{fill:#54594D;}
	.st2{fill:#44493D;}
	.st3{fill:none;stroke:#D5D5D5;stroke-width:2.5586;stroke-miterlimit:10;}
	.st4{fill:#EFE8BD;}
	.st5{fill:#F9EEC2;}
	.st6{fill:#D9CEA2;}
	.st7{fill:#E9DEB2;}
	.st8{fill:#AEC6CE;}
	.st9{fill:#B2B2B1;}
	.st10{fill:#CEB08A;}
	.st11{fill:#E5E5E5;}
	.st12{fill:#BEA07A;}
	.st13{fill:none;stroke:#BEA07A;stroke-width:1.5102;stroke-miterlimit:10;}
	.st14{fill:#AF9374;}
	.st15{fill:none;stroke:#BEA07A;stroke-width:3.0243;stroke-miterlimit:10;}
	.st16{fill:#F1DCCB;}
	.st17{fill:#F5C499;}
	.st18{fill:#CB7F5D;}
	.st19{fill:#E3A580;}
	.st20{fill:#D39570;}
	.st21{fill:#DB9268;}
	.st22{fill:#FCB482;}
	.st23{fill:#D78458;}
	.st24{fill:#D9C8B6;}
	.st25{fill:#D1BCAB;}
	.st26{fill:#CB8258;}
	.st27{fill:#ECA472;}
	.st28{fill:#C77448;}
	.st29{fill:#BB6F4D;}
	.st30{fill:#E5B489;}
	.st31{fill:#F4EAE2;}
	.st32{fill:#AF7D52;}
	.st33{fill:#F2E0AF;}
	.st34{fill:#E5D5B5;}
	.st35{fill:#D3C29B;}
	.st36{fill:#F2F6F6;}
	.st37{fill:#EFEFEF;}
	.st38{fill:#FFFFFF;}
	.st39{fill:#333333;}
	.st40{fill:#EBEBEB;}
	.st41{fill:none;stroke:#CCCCCC;stroke-width:1.9623;}
	.st42{fill:none;stroke:#CCCCCC;stroke-width:1.9635;}
	.st43{fill:none;stroke:#CCCCCC;stroke-width:1.9577;}
	.st44{fill:none;stroke:#000000;stroke-width:3.9323;stroke-miterlimit:10;}
	.st45{fill:#801450;}
	.st46{fill:none;stroke:#000000;stroke-width:3.9386;stroke-miterlimit:10;}
	.st47{fill:#C10000;}
	.st48{fill:none;stroke:#000000;stroke-width:3.9389;stroke-miterlimit:10;}
	.st49{fill:#EE771A;}
</style>
<polygon class="st40" points="513,512.1 -1,512.1 -1,501.2 7.7,464.2 16.4,474.2 25.1,480.3 33.8,475.7 42.6,463.7 51.3,467.6 
	60,463.4 68.7,445.9 77.4,431.8 86.1,426.1 94.8,359.5 103.5,357.6 112.3,364.6 121,398.6 129.7,315.3 138.4,174.8 147.1,2.3 
	155.8,65.9 164.5,136.7 173.2,199.4 181.9,171.2 190.7,188.8 199.4,225.1 208.1,223.9 216.8,266.1 225.5,304.8 234.2,326.5 
	242.9,324.8 251.6,234 260.4,365.8 269.1,338.8 277.8,357.6 286.5,271.9 295.2,303.7 303.9,280.6 312.6,360.3 321.3,333 
	330.1,343.5 338.8,351.8 347.5,390.8 356.2,352.7 364.9,367.9 373.6,402.2 382.3,411.6 391,405 399.7,428.4 408.5,421.9 
	417.2,349.6 425.9,393.8 434.6,383.3 443.3,377 452,407.9 460.7,400.6 469.4,452.1 478.2,403.8 486.9,400.6 495.6,384.8 
	504.3,401.1 513,426.4 "/>
<line class="st42" x1="86.5" y1="513.4" x2="86.5" y2="544"/>
<line class="st42" x1="186.9" y1="513.4" x2="186.9" y2="528.7"/>
<line class="st42" x1="386.9" y1="513.4" x2="386.9" y2="528.7"/>
<line class="st42" x1="286" y1="513.4" x2="286" y2="544"/>
<line class="st42" x1="486" y1="513.4" x2="486" y2="544"/>
<g>
	<g>
		<line class="st42" x1="3" y1="512.4" x2="512.9" y2="512.4"/>
		<line class="st42" x1="3" y1="409.5" x2="512.9" y2="409.5"/>
		<line class="st42" x1="3" y1="205.1" x2="512.9" y2="205.1"/>
		<line class="st42" x1="3" y1="0" x2="512.9" y2="0"/>
	</g>
</g>
<line class="st48" x1="-1" y1="513.4" x2="512.7" y2="513.4"/>
<g>
	<polygon class="st49" points="512.8,511.6 5.6,511.6 5.6,511.6 13.9,511.6 22.2,511.6 30.5,511.6 38.8,511.6 47.1,511.6 
		55.4,511.6 63.8,511.6 72.1,511.6 80.4,511.6 88.7,510.4 97,511.5 105.3,511.4 113.6,511.3 122,511.2 130.3,509.9 138.6,498.4 
		146.9,473.7 155.2,454.3 163.5,442.9 171.9,445 180.2,454.7 188.5,443.1 196.8,470 205.1,476.9 213.4,486.8 221.7,495 230.1,500.1 
		238.4,487.8 246.7,477.6 255,492.5 263.3,486.5 271.6,486.5 279.9,419.6 288.3,446.2 296.6,404.8 304.9,462.1 313.2,444.5 
		321.5,456.7 329.8,443.4 338.1,458 346.5,440.4 354.8,429.1 363.1,460.3 371.4,469.9 379.7,459 388,476.3 396.4,472.5 404.7,476.2 
		413,445.8 421.3,432.6 429.6,451.6 437.9,456 446.2,461.4 454.6,490.5 462.9,448.1 471.2,455.4 479.5,426.2 487.8,434.5 
		496.1,459.7 504.4,434.5 512.8,459.7 	"/>
</g>
</svg>
