<?xml version="1.0" encoding="utf-8"?>
<!-- Generator: Adobe Illustrator 19.1.0, SVG Export Plug-In . SVG Version: 6.00 Build 0)  -->
<svg version="1.1" id="Layer_1" xmlns="http://www.w3.org/2000/svg" xmlns:xlink="http://www.w3.org/1999/xlink" x="0px" y="0px"
	 viewBox="0 0 386 128" style="enable-background:new 0 0 386 128;" xml:space="preserve">
<style type="text/css">
	.st0{fill:#EBEBEB;}
	.st1{fill:none;stroke:#CCCCCC;stroke-width:2;}
	.st2{fill:none;stroke:#000000;stroke-width:3.9349;stroke-miterlimit:10;}
	.st3{fill:#801450;}
	.st4{fill:none;stroke:#CCCCCC;stroke-width:1.9696;}
	.st5{fill:none;stroke:#000000;stroke-width:3.9391;stroke-miterlimit:10;}
	.st6{fill:#C10000;}
	.st7{fill:#EE771A;}
	.st8{fill:#E2E2E2;}
	.st9{fill:#54594D;}
	.st10{fill:#44493D;}
	.st11{fill:none;stroke:#D5D5D5;stroke-width:2.5586;stroke-miterlimit:10;}
	.st12{fill:#EFE8BD;}
	.st13{fill:#F9EEC2;}
	.st14{fill:#D9CEA2;}
	.st15{fill:#E9DEB2;}
	.st16{fill:#AEC6CE;}
	.st17{fill:#B2B2B1;}
	.st18{fill:#CEB08A;}
	.st19{fill:#E5E5E5;}
	.st20{fill:#BEA07A;}
	.st21{fill:none;stroke:#BEA07A;stroke-width:1.5102;stroke-miterlimit:10;}
	.st22{fill:#AF9374;}
	.st23{fill:none;stroke:#BEA07A;stroke-width:3.0243;stroke-miterlimit:10;}
	.st24{fill:#F1DCCB;}
	.st25{fill:#F5C499;}
	.st26{fill:#CB7F5D;}
	.st27{fill:#E3A580;}
	.st28{fill:#D39570;}
	.st29{fill:#DB9268;}
	.st30{fill:#FCB482;}
	.st31{fill:#D78458;}
	.st32{fill:#D9C8B6;}
	.st33{fill:#D1BCAB;}
	.st34{fill:#CB8258;}
	.st35{fill:#ECA472;}
	.st36{fill:#C77448;}
	.st37{fill:#BB6F4D;}
	.st38{fill:#E5B489;}
	.st39{fill:#F4EAE2;}
	.st40{fill:#AF7D52;}
	.st41{fill:#F2E0AF;}
	.st42{fill:#E5D5B5;}
	.st43{fill:#D3C29B;}
	.st44{fill:#F2F6F6;}
	.st45{fill:#EFEFEF;}
	.st46{fill:#FFFFFF;}
	.st47{fill:#333333;}
</style>
<g>
	<polygon class="st47" points="0,48.8 6.5,48.8 6.5,41.5 13.8,41.5 13.8,45.1 13.8,24.9 31.1,24.9 31.1,36.8 39.1,36.8 39.1,42.1 
		43.1,42.1 79,42.1 79,97.9 0,97.9 	"/>
	<path class="st46" d="M28.1,67.3h-7.3c-1.1,0-2-0.9-2-2V50.8c0-1.1,0.9-2,2-2h7.3c1.1,0,2,0.9,2,2v14.6
		C30.1,66.4,29.2,67.3,28.1,67.3"/>
	<polygon class="st47" points="83.7,97.9 83.7,92.5 89.2,92.5 89.2,88.1 91.7,88.1 91.7,90.6 94.2,90.6 94.2,88.1 94.2,85.1 
		101.2,85.1 101.2,82.1 105.2,82.1 105.2,90 108.7,90 108.7,93.5 113.1,97.9 	"/>
	<path class="st47" d="M162.1,97.9V22.3h10.5V18h4.9v-6.5h7.4V0h5.1v6h8.4v2.7c0,0,23.2-1.1,27.2,2c4,3.1,17.4,11.6,17.4,11.6v75.6
		H162.1z"/>
	<path class="st46" d="M187.9,39.5H183c-1.1,0-2-0.9-2-2V26.9c0-1.1,0.9-2,2-2h4.9c1.1,0,2,0.9,2,2v10.6
		C189.9,38.6,189,39.5,187.9,39.5"/>
	<path class="st46" d="M224.4,51.4h-4.9c-1.1,0-2-0.9-2-2V38.8c0-1.1,0.9-2,2-2h4.9c1.1,0,2,0.9,2,2v10.6
		C226.4,50.5,225.5,51.4,224.4,51.4"/>
	<path class="st46" d="M381.9,95.1c0,17.3-49.2,31.3-49.2,31.3s-49.2-14-49.2-31.3C283.5,77.8,381.9,77.8,381.9,95.1"/>
	<rect x="310.4" y="115.9" class="st47" width="7" height="4.5"/>
	<rect x="327.5" y="121.3" class="st47" width="7" height="4.5"/>
	<rect x="329.2" y="123.5" class="st47" width="7" height="4.5"/>
	<rect x="315.2" y="118.2" class="st47" width="7" height="4.5"/>
	<rect x="322.2" y="118.2" class="st47" width="7" height="4.5"/>
	<rect x="321" y="121.9" class="st47" width="7" height="4.5"/>
	<rect x="303.4" y="113.7" class="st47" width="7" height="4.5"/>
	<rect x="333.5" y="121.3" class="st47" width="7" height="4.5"/>
	<rect x="340.4" y="119.7" class="st47" width="7" height="4.5"/>
	<rect x="346.8" y="117.4" class="st47" width="7" height="4.5"/>
	<rect x="343.3" y="115.2" class="st47" width="7" height="4.5"/>
	<rect x="357.3" y="111.1" class="st47" width="7" height="4.5"/>
	<rect x="357.3" y="115.2" class="st47" width="7" height="4.5"/>
	<rect x="350.3" y="111.5" class="st47" width="7" height="4.5"/>
	<rect x="364.3" y="110.2" class="st47" width="7" height="4.5"/>
	<rect x="368.5" y="106.6" class="st47" width="7" height="4.5"/>
	<rect x="357.3" y="106.6" class="st47" width="7" height="4.5"/>
	<rect x="350.3" y="115.2" class="st47" width="7" height="4.5"/>
	<rect x="299.9" y="111.5" class="st47" width="7" height="4.5"/>
	<rect x="296.4" y="108.8" class="st47" width="7" height="4.5"/>
	<rect x="292.9" y="106.6" class="st47" width="7" height="4.5"/>
	<rect x="288.5" y="104.4" class="st47" width="7" height="4.5"/>
	<rect x="373.5" y="102.1" class="st47" width="7" height="4.5"/>
	<rect x="377" y="99.9" class="st47" width="7" height="4.5"/>
	<rect x="379" y="97.9" class="st47" width="7" height="4.5"/>
	<rect x="286" y="101.9" class="st47" width="7" height="4.5"/>
	<rect x="283.5" y="97.9" class="st47" width="7" height="4.5"/>
	<rect x="303.4" y="108.8" class="st47" width="7" height="4.5"/>
</g>
</svg>
