<?xml version="1.0" encoding="utf-8"?>
<!-- Generator: Adobe Illustrator 19.1.0, SVG Export Plug-In . SVG Version: 6.00 Build 0)  -->
<svg version="1.1" id="Layer_1" xmlns="http://www.w3.org/2000/svg" xmlns:xlink="http://www.w3.org/1999/xlink" x="0px" y="0px"
	 viewBox="0 0 514 544" style="enable-background:new 0 0 514 544;" xml:space="preserve">
<style type="text/css">
	.st0{fill:#E2E2E2;}
	.st1{fill:#54594D;}
	.st2{fill:#44493D;}
	.st3{fill:none;stroke:#D5D5D5;stroke-width:2.5586;stroke-miterlimit:10;}
	.st4{fill:#EFE8BD;}
	.st5{fill:#F9EEC2;}
	.st6{fill:#D9CEA2;}
	.st7{fill:#E9DEB2;}
	.st8{fill:#AEC6CE;}
	.st9{fill:#B2B2B1;}
	.st10{fill:#CEB08A;}
	.st11{fill:#E5E5E5;}
	.st12{fill:#BEA07A;}
	.st13{fill:none;stroke:#BEA07A;stroke-width:1.5102;stroke-miterlimit:10;}
	.st14{fill:#AF9374;}
	.st15{fill:none;stroke:#BEA07A;stroke-width:3.0243;stroke-miterlimit:10;}
	.st16{fill:#F1DCCB;}
	.st17{fill:#F5C499;}
	.st18{fill:#CB7F5D;}
	.st19{fill:#E3A580;}
	.st20{fill:#D39570;}
	.st21{fill:#DB9268;}
	.st22{fill:#FCB482;}
	.st23{fill:#D78458;}
	.st24{fill:#D9C8B6;}
	.st25{fill:#D1BCAB;}
	.st26{fill:#CB8258;}
	.st27{fill:#ECA472;}
	.st28{fill:#C77448;}
	.st29{fill:#BB6F4D;}
	.st30{fill:#E5B489;}
	.st31{fill:#F4EAE2;}
	.st32{fill:#AF7D52;}
	.st33{fill:#F2E0AF;}
	.st34{fill:#E5D5B5;}
	.st35{fill:#D3C29B;}
	.st36{fill:#F2F6F6;}
	.st37{fill:#EFEFEF;}
	.st38{fill:#FFFFFF;}
	.st39{fill:#333333;}
	.st40{fill:#EBEBEB;}
	.st41{fill:none;stroke:#CCCCCC;stroke-width:1.9623;}
	.st42{fill:none;stroke:#CCCCCC;stroke-width:1.9635;}
	.st43{fill:none;stroke:#CCCCCC;stroke-width:1.9577;}
	.st44{fill:none;stroke:#000000;stroke-width:3.9323;stroke-miterlimit:10;}
	.st45{fill:#801450;}
	.st46{fill:none;stroke:#000000;stroke-width:3.9386;stroke-miterlimit:10;}
	.st47{fill:#C10000;}
	.st48{fill:none;stroke:#000000;stroke-width:3.9389;stroke-miterlimit:10;}
	.st49{fill:#EE771A;}
</style>
<polygon class="st40" points="514,512.4 0.1,512.4 0.1,501.5 8.8,464.5 17.6,474.5 26.3,480.7 35,476.1 43.7,464 52.4,467.9 
	61.1,463.7 69.8,446.2 78.5,432 87.2,426.4 95.9,359.7 104.7,357.8 113.4,364.8 122.1,398.9 130.8,315.5 139.5,175 148.2,2.3 
	156.9,66 165.6,136.8 174.3,199.5 183,171.3 191.7,188.9 200.5,225.2 209.2,224.1 217.9,266.3 226.6,305 235.3,326.7 244,325 
	252.7,234.1 261.4,366 270.1,339 278.8,357.8 287.6,272.1 296.3,303.9 305,280.8 313.7,360.5 322.4,333.2 331.1,343.7 339.8,352 
	348.5,391 357.2,352.9 365.9,368.2 374.6,402.5 383.4,411.9 392.1,405.2 400.8,428.7 409.5,422.2 418.2,349.9 426.9,394.1 
	435.6,383.5 444.3,377.3 453,408.2 461.7,400.8 470.5,452.4 479.2,404.1 487.9,400.8 496.6,385.1 505.3,401.3 514,426.7 "/>
<line class="st41" x1="85.3" y1="513.4" x2="85.3" y2="544"/>
<line class="st41" x1="284.6" y1="513.4" x2="284.6" y2="544"/>
<line class="st41" x1="484.3" y1="513.4" x2="484.3" y2="544"/>
<line class="st41" x1="184.7" y1="513.4" x2="184.7" y2="528.7"/>
<line class="st41" x1="384.4" y1="513.4" x2="384.4" y2="528.7"/>
<g>
	<g>
		<line class="st41" x1="2.9" y1="512.4" x2="512.2" y2="512.4"/>
		<line class="st41" x1="2.9" y1="409.5" x2="512.2" y2="409.5"/>
		<line class="st41" x1="2.9" y1="205.1" x2="512.2" y2="205.1"/>
		<line class="st41" x1="2.9" y1="0" x2="512.2" y2="0"/>
	</g>
</g>
<line class="st46" x1="0.1" y1="513.4" x2="513.7" y2="513.4"/>
<g>
	<polygon class="st47" points="513.9,511.9 0,511.9 0,511.9 8.7,511.3 17.4,511.7 26.1,511 34.8,511.6 43.5,510.2 52.3,511.3 
		61,510.4 69.7,510.4 78.4,504.6 87.1,504.3 95.8,456.2 104.5,479.2 113.2,446.8 121.9,487.1 130.6,421.7 139.4,359 148.1,287.3 
		156.8,374.7 165.5,373.3 174.2,409.3 182.9,389.5 191.6,404.3 200.3,386.5 209,384 217.7,397.8 226.4,420.6 235.2,437.7 
		243.9,415.2 252.6,422.5 261.3,448.8 270,437.7 278.7,441.7 287.4,447.2 296.1,462.4 304.8,475.4 313.5,477.1 322.3,458.5 
		331,468.5 339.7,473.1 348.4,482.3 357.1,482.1 365.8,484.8 374.5,491.3 383.2,493.7 391.9,498.9 400.6,495.7 409.3,491.4 
		418.1,492 426.8,492.5 435.5,489.3 444.2,487.9 452.9,488.5 461.6,472.7 470.3,482.7 479,488.3 487.7,482.4 496.4,492.4 
		505.2,499.9 513.9,493.9 	"/>
</g>
</svg>
