<?xml version="1.0" encoding="utf-8"?>
<!-- Generator: Adobe Illustrator 19.1.0, SVG Export Plug-In . SVG Version: 6.00 Build 0)  -->
<svg version="1.1" id="Layer_1" xmlns="http://www.w3.org/2000/svg" xmlns:xlink="http://www.w3.org/1999/xlink" x="0px" y="0px"
	 viewBox="0 0 514 544" style="enable-background:new 0 0 514 544;" xml:space="preserve">
<style type="text/css">
	.st0{fill:#EBEBEB;}
	.st1{fill:none;stroke:#CCCCCC;stroke-width:2;}
	.st2{fill:none;stroke:#000000;stroke-width:3.9349;stroke-miterlimit:10;}
	.st3{fill:#801450;}
	.st4{fill:none;stroke:#CCCCCC;stroke-width:1.9696;}
	.st5{fill:none;stroke:#000000;stroke-width:3.9391;stroke-miterlimit:10;}
	.st6{fill:#C10000;}
	.st7{fill:#EE771A;}
	.st8{fill:#E2E2E2;}
	.st9{fill:#54594D;}
	.st10{fill:#44493D;}
	.st11{fill:none;stroke:#D5D5D5;stroke-width:2.5586;stroke-miterlimit:10;}
	.st12{fill:#EFE8BD;}
	.st13{fill:#F9EEC2;}
	.st14{fill:#D9CEA2;}
	.st15{fill:#E9DEB2;}
	.st16{fill:#AEC6CE;}
	.st17{fill:#B2B2B1;}
	.st18{fill:#CEB08A;}
	.st19{fill:#E5E5E5;}
	.st20{fill:#BEA07A;}
	.st21{fill:none;stroke:#BEA07A;stroke-width:1.5102;stroke-miterlimit:10;}
	.st22{fill:#AF9374;}
	.st23{fill:none;stroke:#BEA07A;stroke-width:3.0243;stroke-miterlimit:10;}
	.st24{fill:#F1DCCB;}
	.st25{fill:#F5C499;}
	.st26{fill:#CB7F5D;}
	.st27{fill:#E3A580;}
	.st28{fill:#D39570;}
	.st29{fill:#DB9268;}
	.st30{fill:#FCB482;}
	.st31{fill:#D78458;}
	.st32{fill:#D9C8B6;}
	.st33{fill:#D1BCAB;}
	.st34{fill:#CB8258;}
	.st35{fill:#ECA472;}
	.st36{fill:#C77448;}
	.st37{fill:#BB6F4D;}
	.st38{fill:#E5B489;}
	.st39{fill:#F4EAE2;}
	.st40{fill:#AF7D52;}
</style>
<line class="st4" x1="83.9" y1="513.4" x2="83.9" y2="544"/>
<line class="st4" x1="284.7" y1="513.4" x2="284.7" y2="544"/>
<line class="st4" x1="485.8" y1="513.4" x2="485.8" y2="544"/>
<line class="st4" x1="184.1" y1="513.4" x2="184.1" y2="528.7"/>
<line class="st4" x1="385.2" y1="513.4" x2="385.2" y2="528.7"/>
<g>
	<g>
		<polygon class="st0" points="502.3,511.9 0,511.9 0,501.1 8.5,464.4 17,474.1 25.5,480.4 34.1,475.6 42.6,463.5 51.1,468.4 
			59.6,463.7 68.1,445.8 76.6,431.9 85.1,426.7 93.7,359.6 102.2,357.6 110.7,366.5 119.2,399.8 127.7,319.2 136.2,175.3 144.7,2.5 
			153.3,66.2 161.8,136.6 170.3,201.5 178.8,171.9 187.3,194.8 195.8,228.4 204.3,227 212.9,267.7 221.4,305.3 229.9,327.7 
			238.4,325.8 246.9,235.3 255.4,365.8 263.9,339.4 272.5,361.2 281,273 289.5,305 298,280.9 306.5,363.9 315,350.2 323.5,352.6 
			332.1,361.2 340.6,394.1 349.1,359.5 357.6,371.4 366.1,409.3 374.6,411.8 383.1,406.5 391.7,435 400.2,430.1 408.7,367.7 
			417.2,396.8 425.7,389.2 434.2,385.4 442.7,414.7 451.3,403.6 459.8,459.1 468.3,406.5 476.8,407.6 485.3,387.5 493.8,400.9 
			502.3,431.4 		"/>
	</g>
</g>
<g>
	<g>
		<line class="st4" x1="0.9" y1="512.4" x2="514" y2="512.4"/>
		<line class="st4" x1="0.9" y1="409.5" x2="514" y2="409.5"/>
		<line class="st4" x1="0.9" y1="205.1" x2="514" y2="205.1"/>
		<line class="st4" x1="0.9" y1="0" x2="514" y2="0"/>
	</g>
</g>
<line class="st5" x1="0" y1="513.4" x2="513.7" y2="513.4"/>
<g>
	<polygon class="st6" points="501.3,511.4 0.9,511.4 0.9,511.4 9.4,510.8 17.8,511.2 26.3,510.5 34.8,511.1 43.3,509.7 51.8,510.8 
		60.3,509.9 68.7,509.9 77.2,504.2 85.7,503.9 94.2,456 102.7,478.8 111.1,446.6 119.6,486.7 128.1,421.6 136.6,359.2 145.1,287.8 
		153.6,374.8 162,373.4 170.5,409.2 179,389.5 187.5,404.6 196,386.9 204.5,384.4 212.9,398.1 221.4,420.8 229.9,437.8 238.4,415.2 
		246.9,422.6 255.3,448.5 263.8,438 272.3,442.7 280.8,447.9 289.3,463.5 297.8,475.3 306.2,479.7 314.7,471.9 323.2,476.3 
		331.7,480.1 340.2,483.6 348.6,488 357.1,487.1 365.6,492 374.1,493.5 382.6,499.9 391.1,501.2 399.5,498.5 408,495.7 416.5,495 
		425,493.3 433.5,495 441.9,493.3 450.4,474.9 458.9,488.8 467.4,489.7 475.9,487 484.4,494 492.8,499.5 501.3,497.9 	"/>
</g>
</svg>
