<?xml version="1.0" encoding="utf-8"?>
<!-- Generator: Adobe Illustrator 19.1.0, SVG Export Plug-In . SVG Version: 6.00 Build 0)  -->
<svg version="1.1" id="Layer_1" xmlns="http://www.w3.org/2000/svg" xmlns:xlink="http://www.w3.org/1999/xlink" x="0px" y="0px"
	 viewBox="0 0 514 544" style="enable-background:new 0 0 514 544;" xml:space="preserve">
<style type="text/css">
	.st0{fill:#EBEBEB;}
	.st1{fill:none;stroke:#CCCCCC;stroke-width:2;}
	.st2{fill:none;stroke:#000000;stroke-width:3.9349;stroke-miterlimit:10;}
	.st3{fill:#801450;}
	.st4{fill:none;stroke:#CCCCCC;stroke-width:1.9696;}
	.st5{fill:none;stroke:#000000;stroke-width:3.9391;stroke-miterlimit:10;}
	.st6{fill:#C10000;}
	.st7{fill:#EE771A;}
	.st8{fill:#E2E2E2;}
	.st9{fill:#54594D;}
	.st10{fill:#44493D;}
	.st11{fill:none;stroke:#D5D5D5;stroke-width:2.5586;stroke-miterlimit:10;}
	.st12{fill:#EFE8BD;}
	.st13{fill:#F9EEC2;}
	.st14{fill:#D9CEA2;}
	.st15{fill:#E9DEB2;}
	.st16{fill:#AEC6CE;}
	.st17{fill:#B2B2B1;}
	.st18{fill:#CEB08A;}
	.st19{fill:#E5E5E5;}
	.st20{fill:#BEA07A;}
	.st21{fill:none;stroke:#BEA07A;stroke-width:1.5102;stroke-miterlimit:10;}
	.st22{fill:#AF9374;}
	.st23{fill:none;stroke:#BEA07A;stroke-width:3.0243;stroke-miterlimit:10;}
	.st24{fill:#F1DCCB;}
	.st25{fill:#F5C499;}
	.st26{fill:#CB7F5D;}
	.st27{fill:#E3A580;}
	.st28{fill:#D39570;}
	.st29{fill:#DB9268;}
	.st30{fill:#FCB482;}
	.st31{fill:#D78458;}
	.st32{fill:#D9C8B6;}
	.st33{fill:#D1BCAB;}
	.st34{fill:#CB8258;}
	.st35{fill:#ECA472;}
	.st36{fill:#C77448;}
	.st37{fill:#BB6F4D;}
	.st38{fill:#E5B489;}
	.st39{fill:#F4EAE2;}
	.st40{fill:#AF7D52;}
</style>
<g>
	<g>
		<polygon class="st0" points="501.3,511.9 0,511.9 0,501.1 8.5,464.4 17,474.1 25.5,480.4 34,475.6 42.5,463.5 51,468.4 
			59.5,463.7 68,445.8 76.5,431.9 85,426.7 93.5,359.6 102,357.6 110.4,366.5 118.9,399.8 127.4,319.2 135.9,175.3 144.4,2.5 
			152.9,66.2 161.4,136.6 169.9,201.5 178.4,171.9 186.9,194.8 195.4,228.4 203.9,227 212.4,267.7 220.9,305.3 229.4,327.7 
			237.9,325.8 246.4,235.3 254.9,365.8 263.4,339.4 271.9,361.2 280.4,273 288.9,305 297.4,280.9 305.9,363.9 314.4,350.2 
			322.9,352.6 331.3,361.2 339.8,394.1 348.3,359.5 356.8,371.4 365.3,409.3 373.8,411.8 382.3,406.5 390.8,435 399.3,430.1 
			407.8,367.7 416.3,396.8 424.8,389.2 433.3,385.4 441.8,414.7 450.3,403.6 458.8,459.1 467.3,406.5 475.8,407.6 484.3,387.5 
			492.8,400.9 501.3,431.4 		"/>
	</g>
	<line class="st1" x1="86.1" y1="513.4" x2="86.1" y2="544"/>
	<line class="st1" x1="186.1" y1="513.4" x2="186.1" y2="528.7"/>
	<line class="st1" x1="286.4" y1="513.4" x2="286.4" y2="544"/>
	<line class="st1" x1="386.8" y1="513.4" x2="386.8" y2="528.7"/>
	<line class="st1" x1="487.2" y1="513.4" x2="487.2" y2="544"/>
	<g>
		<g>
			<line class="st1" x1="2" y1="512.4" x2="514" y2="512.4"/>
			<line class="st1" x1="2" y1="409.5" x2="514" y2="409.5"/>
			<line class="st1" x1="2" y1="205.1" x2="514" y2="205.1"/>
			<line class="st1" x1="2" y1="0" x2="514" y2="0"/>
		</g>
	</g>
	<line class="st2" x1="1.1" y1="513.4" x2="513.7" y2="513.4"/>
	<polygon class="st3" points="501.3,511.9 0,511.9 0,501.2 8.5,467.3 17,481 25.5,482.5 34,478.8 42.5,471.6 51,474.9 59.5,469.7 
		68,456.4 76.5,452.2 85,448.9 93.5,435.7 102,434.2 110.4,464.4 118.9,458.6 127.4,449.9 135.9,390.5 144.4,386.3 152.9,413.2 
		161.4,424 169.9,439.7 178.4,442.9 186.9,456.2 195.4,471.4 203.9,459.1 212.4,472.8 220.9,481.3 229.4,474.7 237.9,486.6 
		246.4,488.7 254.9,485.7 263.4,492.3 271.9,492.3 280.4,480.2 288.9,475.3 297.4,492.8 305.9,493.6 314.4,494.5 322.9,496 
		331.3,498.7 339.8,501.3 348.3,498.2 356.8,503.3 365.3,505.5 373.8,500.1 382.3,497.2 390.8,503.8 399.3,506.4 407.8,504.4 
		416.3,505.7 424.8,507.2 433.3,478.7 441.8,504.8 450.3,506.2 458.8,507.5 467.3,507.2 475.8,507.1 484.3,507.5 492.8,507.4 
		501.3,507.8 	"/>
</g>
</svg>
