<?xml version="1.0" encoding="utf-8"?>
<!-- Generator: Adobe Illustrator 19.1.0, SVG Export Plug-In . SVG Version: 6.00 Build 0)  -->
<svg version="1.1" id="Layer_1" xmlns="http://www.w3.org/2000/svg" xmlns:xlink="http://www.w3.org/1999/xlink" x="0px" y="0px"
	 viewBox="0 0 514 544" style="enable-background:new 0 0 514 544;" xml:space="preserve">
<style type="text/css">
	.st0{fill:#E2E2E2;}
	.st1{fill:#54594D;}
	.st2{fill:#44493D;}
	.st3{fill:none;stroke:#D5D5D5;stroke-width:2.5586;stroke-miterlimit:10;}
	.st4{fill:#EFE8BD;}
	.st5{fill:#F9EEC2;}
	.st6{fill:#D9CEA2;}
	.st7{fill:#E9DEB2;}
	.st8{fill:#AEC6CE;}
	.st9{fill:#B2B2B1;}
	.st10{fill:#CEB08A;}
	.st11{fill:#E5E5E5;}
	.st12{fill:#BEA07A;}
	.st13{fill:none;stroke:#BEA07A;stroke-width:1.5102;stroke-miterlimit:10;}
	.st14{fill:#AF9374;}
	.st15{fill:none;stroke:#BEA07A;stroke-width:3.0243;stroke-miterlimit:10;}
	.st16{fill:#F1DCCB;}
	.st17{fill:#F5C499;}
	.st18{fill:#CB7F5D;}
	.st19{fill:#E3A580;}
	.st20{fill:#D39570;}
	.st21{fill:#DB9268;}
	.st22{fill:#FCB482;}
	.st23{fill:#D78458;}
	.st24{fill:#D9C8B6;}
	.st25{fill:#D1BCAB;}
	.st26{fill:#CB8258;}
	.st27{fill:#ECA472;}
	.st28{fill:#C77448;}
	.st29{fill:#BB6F4D;}
	.st30{fill:#E5B489;}
	.st31{fill:#F4EAE2;}
	.st32{fill:#AF7D52;}
	.st33{fill:#F2E0AF;}
	.st34{fill:#E5D5B5;}
	.st35{fill:#D3C29B;}
	.st36{fill:#F2F6F6;}
	.st37{fill:#EFEFEF;}
	.st38{fill:#FFFFFF;}
	.st39{fill:#333333;}
	.st40{fill:#EBEBEB;}
	.st41{fill:none;stroke:#CCCCCC;stroke-width:1.9623;}
	.st42{fill:none;stroke:#CCCCCC;stroke-width:1.9635;}
	.st43{fill:none;stroke:#CCCCCC;stroke-width:1.9577;}
	.st44{fill:none;stroke:#000000;stroke-width:3.9323;stroke-miterlimit:10;}
	.st45{fill:#801450;}
	.st46{fill:none;stroke:#000000;stroke-width:3.9386;stroke-miterlimit:10;}
	.st47{fill:#C10000;}
	.st48{fill:none;stroke:#000000;stroke-width:3.9389;stroke-miterlimit:10;}
	.st49{fill:#EE771A;}
</style>
<polygon class="st40" points="512,512.1 0.3,512.1 0.3,501.2 8.9,464.2 17.6,474.2 26.3,480.3 35,475.7 43.6,463.7 52.3,467.6 
	61,463.4 69.7,445.9 78.3,431.8 87,426.1 95.7,359.5 104.3,357.6 113,364.6 121.7,398.6 130.4,315.3 139,174.8 147.7,2.3 
	156.4,65.9 165.1,136.7 173.7,199.4 182.4,171.2 191.1,188.8 199.8,225.1 208.4,223.9 217.1,266.1 225.8,304.8 234.4,326.5 
	243.1,324.8 251.8,234 260.5,365.8 269.1,338.8 277.8,357.6 286.5,271.9 295.2,303.7 303.8,280.6 312.5,360.3 321.2,333 
	329.9,343.5 338.5,351.8 347.2,390.8 355.9,352.7 364.6,367.9 373.2,402.2 381.9,411.6 390.6,405 399.2,428.4 407.9,421.9 
	416.6,349.6 425.3,393.8 433.9,383.3 442.6,377 451.3,407.9 460,400.6 468.6,452.1 477.3,403.8 486,400.6 494.7,384.8 503.3,401.1 
	512,426.4 "/>
<line class="st43" x1="87.9" y1="513.4" x2="87.9" y2="544"/>
<line class="st43" x1="186.9" y1="513.4" x2="186.9" y2="528.7"/>
<line class="st43" x1="286.3" y1="513.4" x2="286.3" y2="544"/>
<line class="st43" x1="385.6" y1="513.4" x2="385.6" y2="528.7"/>
<line class="st43" x1="485" y1="513.4" x2="485" y2="544"/>
<g>
	<g>
		<line class="st43" x1="4.7" y1="512.4" x2="511.6" y2="512.4"/>
		<line class="st43" x1="4.7" y1="409.5" x2="511.6" y2="409.5"/>
		<line class="st43" x1="4.7" y1="205.1" x2="511.6" y2="205.1"/>
		<line class="st43" x1="4.7" y1="0" x2="511.6" y2="0"/>
	</g>
</g>
<line class="st44" x1="-0.6" y1="513.4" x2="511.3" y2="513.4"/>
<g>
	<polygon class="st45" points="512,512.1 0.3,512.1 0.3,501.3 8.9,467.1 17.6,481.2 26.3,482.5 35,478.9 43.6,471.8 52.3,474 
		61,469.3 69.7,456.4 78.3,452 87,448.4 95.7,435.5 104.3,434.2 113,462.9 121.7,457.6 130.4,446.5 139,390 147.7,386.1 156.4,413 
		165.1,424.1 173.7,438.3 182.4,442.7 191.1,450.4 199.8,468.5 208.4,456.9 217.1,471.7 225.8,481.2 234.4,474 243.1,486.3 
		251.8,488.3 260.5,485.7 269.1,492.3 277.8,490.9 286.5,480.1 295.2,475.4 303.8,492.9 312.5,493.3 321.2,493 329.9,495.4 
		338.5,498.3 347.2,499.7 355.9,497.7 364.6,503.1 373.2,505.5 381.9,500.2 390.6,497.3 399.2,503.3 407.9,506 416.6,504.1 
		425.3,505.8 433.9,506.3 442.6,478.1 451.3,503.6 460,506.1 468.6,507.1 477.3,506.7 486,506.4 494.7,507.7 503.3,507.6 512,507.7 
			"/>
</g>
</svg>
